<svg xmlns="http://www.w3.org/2000/svg" xmlns:xlink="http://www.w3.org/1999/xlink" viewBox="0 0 617.46 576"><defs><style>.cls-1{fill:none;clip-rule:evenodd;}.cls-2{clip-path:url(#clip-path);}.cls-3{fill:url(#linear-gradient);}.cls-4{clip-path:url(#clip-path-2);}.cls-5{fill:url(#linear-gradient-2);}.cls-6{clip-path:url(#clip-path-3);}.cls-7{fill:url(#linear-gradient-3);}.cls-8{clip-path:url(#clip-path-4);}.cls-9{fill:url(#linear-gradient-4);}</style><clipPath id="clip-path" transform="translate(117.46)"><path class="cls-1" d="M80.45,387.78c0-119.11,97.45-216.56,216.55-216.56H414.46A85.6,85.6,0,0,0,500,88.61v-6A85.62,85.62,0,0,0,414.46,0H297C-30.35,0-117.46,460.62,190.27,576,124.82,538.64,80.45,468.14,80.45,387.78"/></clipPath><linearGradient id="linear-gradient" x1="308.01" y1="523.64" x2="309.89" y2="-92.67" gradientUnits="userSpaceOnUse"><stop offset="0" stop-color="#007c21"/><stop offset="1" stop-color="#ff0"/></linearGradient><clipPath id="clip-path-2" transform="translate(117.46)"><path class="cls-1" d="M288.94,222C201.43,226.21,131,299.27,131,387.78a164.24,164.24,0,0,0,14.49,67.54A215.8,215.8,0,0,1,297,393.08H414.46A85.6,85.6,0,0,0,500,310.47v-6a85.62,85.62,0,0,0-85.54-82.62H297c-2.69,0-5.37,0-8.06.1"/></clipPath><linearGradient id="linear-gradient-2" x1="130.6" y1="337.77" x2="829.77" y2="339.67" gradientUnits="userSpaceOnUse"><stop offset="0" stop-color="#007c21"/><stop offset="0.41" stop-color="#67b114"/><stop offset="1" stop-color="#ff0"/></linearGradient><clipPath id="clip-path-3" transform="translate(117.46)"><path class="cls-1" d="M288.94,222C201.43,226.21,131,299.27,131,387.78a164.24,164.24,0,0,0,14.49,67.54A142.18,142.18,0,0,1,288.94,307.47H414.46A42.86,42.86,0,0,0,423,222.28c-2.8-.28-5.65-.42-8.52-.42H297c-2.69,0-5.37,0-8.06.1"/></clipPath><linearGradient id="linear-gradient-3" x1="130.62" y1="337.71" x2="685.85" y2="339.43" gradientUnits="userSpaceOnUse"><stop offset="0" stop-color="#007c21"/><stop offset="0.15" stop-color="#208c1d"/><stop offset="0.48" stop-color="#72b712"/><stop offset="0.96" stop-color="#f3f901"/><stop offset="1" stop-color="#ff0"/></linearGradient><clipPath id="clip-path-4" transform="translate(117.46)"><path class="cls-1" d="M453.07,21.94A44.17,44.17,0,0,0,416.33,0l-1.87,0H297C136.72,0,34,110.43,7.09,236.69-21,368.3,33.21,517.12,190.27,576a254.36,254.36,0,0,1-152-258.74,258,258,0,0,1,4.19-27,248,248,0,0,1,48.5-103c48.46-61.22,124.42-99.47,205.9-99H414.9A44.11,44.11,0,0,0,455.6,27a46.06,46.06,0,0,0-2.53-5.07"/></clipPath><linearGradient id="linear-gradient-4" x1="334.59" y1="534.49" x2="341.08" y2="-27.65" gradientUnits="userSpaceOnUse"><stop offset="0" stop-color="#007c21"/><stop offset="0.33" stop-color="#58a916"/><stop offset="0.79" stop-color="#cfe606"/><stop offset="1" stop-color="#ff0"/></linearGradient></defs><g id="Layer_2" data-name="Layer 2"><g id="Layer_1-2" data-name="Layer 1"><g class="cls-2"><rect class="cls-3" width="617.46" height="576"/></g><g class="cls-4"><rect class="cls-5" x="248.45" y="221.86" width="369.01" height="233.45"/></g><g class="cls-6"><rect class="cls-7" x="248.45" y="221.86" width="330.52" height="233.45"/></g><g class="cls-8"><rect class="cls-9" x="96.47" width="481.93" height="576"/></g></g></g></svg>